<svg xmlns="http://www.w3.org/2000/svg" width="300" height="81" fill="none" viewBox="0 0 300 81"><path fill="#fff" fill-rule="evenodd" d="m34.67 57.923 1.759 1.209 4.835 3.077-5.055-1.1C35 67.594 30.275 72.979 23.9 74.957v4.505h33.297v-4.725c-4.726-1.318-8.572-3.956-10.77-8.571l-1.318-2.747 2.967.659c13.736 3.187 26.923.66 23.956-16.264-1.82-10.011-10.061-19.464-16.845-27.245v-.001a669.104 669.104 0 0 1-1.727-1.985l-.227-.264C48.578 12.904 43.733 7.27 40.164 1c-3.827 5.623-8.177 10.79-12.515 15.944-3.632 4.315-7.256 8.62-10.561 13.177 4.608 2.204 15.7 9.887 21.122 13.643l1.405.972c-.24-.312-.81-.954-1.543-1.78-2.624-2.955-7.338-8.264-6.479-9.209 2.43-2.776 3.9-4.866 5.762-7.516.497-.707 1.022-1.454 1.601-2.264l1.099-1.538 1.209 1.428c.192.223.408.472.645.744 4.077 4.695 14.19 16.34 14.19 21.014v1.1c-.44 2.856-2.528 4.834-5.165 5.604-3.846 1.099-8.242-.44-11.648-2.198a1640.92 1640.92 0 0 1-4.004-2.423c-7.377-4.474-15.062-9.134-22.59-12.852l-2.088-.989c-1.868-.55-3.736-.66-5.604-.22 2.088 1.319 4.176 2.858 6.044 4.286l.88.77-.55.988c-2.967 6.044-6.044 16.264-.33 21.759 2.857 2.747 7.033 3.186 10.77 2.747 2.307-.44 4.834-.99 7.142-1.978-5.824.44-11.978-.66-10.989-7.693.44-1.977 1.209-3.956 2.198-5.824l.879-1.538 1.319 1.209c3.956 3.516 8.131 6.703 12.417 9.67l-.11-.11Zm76.814-34.505v12.857l-.44-.66-1.099-1.758c-1.318-2.087-2.857-4.175-4.835-6.263-1.868-2.088-4.286-3.187-7.253-3.187-2.967 0-5.274 1.099-6.373 3.297-1.1 2.197-1.759 4.175-1.978 5.824a55.3 55.3 0 0 0-.44 7.033l.33 3.406c.55 3.737 1.868 6.704 3.956 8.901 2.088 2.198 4.615 3.187 7.472 3.187s5.275-.769 7.912-2.307l3.187-1.978 1.209-.88-1.758 6.704-.879.769c-2.967 2.528-5.715 3.846-8.242 4.286-2.528.33-4.396.55-5.605.55-5.824 0-10.659-1.979-14.395-6.045-3.736-3.956-5.605-9.23-5.605-15.714s1.978-11.319 5.935-15.055c3.956-3.846 9.01-5.714 15.274-5.714 4.683 0 5.189.184 6.203.552.342.125.742.27 1.38.437 2.417.66 4.395 1.318 5.824 1.978l.22-.22Zm17.912 13.297h25.055l.109.22v-1.43c-.439-4.395-2.197-7.911-5.274-10.659-3.077-2.747-7.033-4.066-11.759-4.066-1.098 0-3.186.22-6.263.66-3.077.55-6.264 2.637-9.341 6.483-3.187 3.737-4.725 8.352-4.725 13.737v1.868c.11 1.099.439 3.187.989 6.263.549 3.077 2.637 6.044 6.044 9.121 3.516 2.967 7.692 4.506 12.527 4.506 1.429 0 3.407-.22 5.824-.66 2.418-.44 5.165-1.978 8.242-4.505l.989-.88 1.649-6.263-.66.55-.549.44-1.319.768c-1.758.99-3.297 1.759-4.505 2.198-1.209.44-2.198.77-2.967.77-.362.051-.092.078-.093.093-.001.016-.345.016-2.325.016-3.736 0-6.593-1.538-8.681-4.395-1.978-2.857-2.967-7.253-2.967-12.967v-1.868Zm11.648-3.407h-11.209l-.11.11v-1.319c.44-2.088 1.099-3.736 2.088-4.945.989-1.209 1.978-1.978 2.967-2.198.322-.107.411-.191.48-.255.141-.134.194-.184 2.048-.184 2.747 0 4.615 1.209 5.604 3.736l.22.77.22 1.538c0 1.648-.77 2.527-2.308 2.747Z" clip-rule="evenodd"/><path fill="#ED1F24" fill-rule="evenodd" d="M158.956 63.306a7.42 7.42 0 0 0 2.198-2.857c.44-.989.659-2.417.659-4.285V22.206c0-1.428 0-2.527-.109-3.296 0-.77-.55-1.649-1.319-2.528l-1.209-1.208H170.495c1.151 0 2.553-.168 4.134-.357l.701-.083c1.868-.22 4.066-.33 6.593-.33 5.824 0 10 .88 12.638 2.638 2.637 1.758 4.066 4.395 4.066 7.912 0 2.155 0 2.288-.051 2.396l-.011.022c-.032.064-.082.163-.158.659-.11 1.428-1.099 3.077-2.857 4.945-1.759 1.868-4.066 3.296-7.143 4.176l-1.209.33 1.209 1.977 1.099 1.758 5.165 7.693 1.538 2.088 3.846 5.274c1.649 2.308 2.857 3.847 3.736 4.616.77.769 1.759 1.319 2.858 1.758-1.869.77-3.737 1.099-5.715 1.099h-1.318c-.44 0-1.649-.11-3.517-.33-1.868-.22-3.736-.879-5.604-2.197-1.868-1.32-4.176-3.847-6.923-7.693l-5.934-8.791-.66-1.099-2.198-3.187v15.715c0 1.868.22 3.186.66 4.285.439.99 1.209 1.978 2.307 2.857H158.956Zm16.704-26.153h-.989V19.02l1.098-.22h2.418c2.637 0 4.615.66 6.044 2.088 1.429 1.428 2.198 3.406 2.198 6.044 0 1.209-.22 2.527-.55 4.285-.329 1.649-1.428 3.077-3.077 4.286-1.758 1.1-4.065 1.649-7.142 1.649ZM205 22.647h13.956v23.626c0 4.176.55 7.253 1.539 9.231 1.098 1.978 2.747 2.967 5.164 2.967h1.319c.659-.22 1.648-.44 2.747-.66 1.099-.219 2.088-1.208 2.967-2.746.879-1.539 1.319-3.847 1.319-6.923V29.9c0-2.967-.879-5.385-2.527-7.253h13.956v33.846c0 1.868.109 3.297.439 4.176.33.88.879 1.758 1.758 2.747h-13.736v-4.725l-.989.989c-.143.143-.613.473-1.348.989h-.001c-.393.277-.862.606-1.398.989-1.648 1.099-3.627 1.758-5.934 2.088-2.308.33-4.066.44-5.275.44-4.066 0-7.033-1.1-8.901-3.297-1.758-2.198-2.747-5.605-2.747-10.33V29.9c0-1.867-.22-3.186-.55-4.175-.329-.99-.989-1.978-1.978-3.077h.22Zm46.936 40.55c-.04.037-.081.074-.123.11l-.329-.11h.452Zm0 0h16.361c-.989-.878-1.648-1.867-1.978-2.746-.33-.88-.44-2.198-.44-4.066V38.033c0-3.187.44-5.604 1.319-7.033.879-1.538 2.088-2.418 3.626-2.747.546-.117.622-.206.678-.273.104-.121.143-.167 2.839-.167 4.176 0 6.264 2.418 6.264 7.143v22.747l-.66 5.715H295l-1.428-1.32c-.55-.878-.879-1.647-1.099-2.307-.22-.66-.22-1.758-.22-3.296V35.066c0-4.506-.659-7.692-2.088-9.56-1.319-1.869-3.187-2.968-5.384-3.297-.682-.102-1.004-.183-1.255-.247-.56-.14-.768-.193-3.8-.193-4.396 0-8.462 1.429-12.528 4.286l-1.099.88v-4.287h-13.736c1.538 1.759 2.308 4.176 2.308 7.143v26.594c0 1.648-.22 2.967-.66 4.066-.421 1.053-1.145 1.904-2.075 2.747Z" clip-rule="evenodd"/></svg>