<svg xmlns="http://www.w3.org/2000/svg" width="300" height="190" fill="none" viewBox="0 0 300 190"><path fill="#fff" fill-rule="evenodd" d="M137.845 171.538s-68.686-40.943-61.13-143.32c2.045-.503 4.22-1.07 6.526-1.669 24.24-6.305 62.943-16.372 116.564 1.67 1.656 11.933 1.064 28.603-2.019 45.982h18.488l-1.515 8.558-6.026 5.134h1.712l1.105 3.423h1.711l-.606 3.423h-6.846l-2.211-6.846h-3.422l.606-3.423h5.134l1.997-1.711.909-5.135h-8.557l-2.015 1.712-2.71 15.403h-2.547c-4.495 15.342-11.02 30.002-19.743 41.176 7.357-14.483 12.496-28.269 15.902-41.176h-.458l2.71-15.403 1.272-1.08c2.713-16.625 2.551-31.437.766-43.962-14.382-3.577-69.788-10.77-102.066 3.314-.013.97-.03 2-.048 3.083v.005c-.14 8.361-.333 20.007 1.04 33.505h-5.023l-3.619 20.537h11.696l-.484-3.422h13.355l-.607 3.423H95.604c5.341 24.569 17.02 52.289 42.241 76.799ZM91.178 91.315l1.92-10.908c.476 3.54 1.066 7.183 1.797 10.908h-3.717ZM31.67 79.335l-4.029 3.424 2.835 3.423-.606 3.423-6.044 5.134h-8.557l.606-3.423h5.134l2.015-1.711.606-3.423-1.408-1.712h-5.135l.589-3.423h5.134l2.015-1.711.303-1.712H16.57l-2.014 1.712-2.71 15.403H5l2.71-15.403 6.043-5.135H32.58l-.909 5.135ZM55.202 94.74H36.377l-4.226-5.134 2.71-15.404h6.846l-2.71 15.404 1.409 1.711h8.557l3.013-17.115h6.846l-3.62 20.538Zm26.849-3.423-.606 3.423h-23.96L61.102 74.2h6.846l-3.013 17.115H82.05Zm54.284-10.269h-6.845l.606-3.423h-8.557l-2.015 1.712-.892 5.134h17.115l-.606 3.423h-17.115l-.606 3.423h17.115l-.606 3.423h-23.961l2.71-15.403 6.044-5.135h18.826l-1.213 6.846Zm26.849-3.423h-8.558l-3.012 17.115h-6.846l3.012-17.115h-8.557l.607-3.423h23.96l-.606 3.423Zm25.332 5.135-6.025 5.134h-8.558l.607-3.423h5.134l1.997-1.711.909-5.135h-8.557l-2.015 1.712-2.71 15.403h-6.845l2.709-15.403 6.044-5.135h18.826l-1.516 8.558Zm51.29 6.846-6.043 5.134h-18.826l2.709-15.403 6.044-5.135h18.826l-2.71 15.404Zm-13.299-11.98-2.015 1.71-2.103 11.981h8.557l2.015-1.711 2.103-11.98h-8.557Zm39.541 11.98-6.044 5.134h-18.826l2.711-15.403 6.043-5.135h18.826l-2.71 15.404Zm-13.299-11.98-2.015 1.71-2.104 11.981h8.558l2.014-1.711 2.104-11.98h-8.557Zm41.039 3.422h-6.846l.606-3.423h-8.557l-2.015 1.712-.891 5.134h17.114l-.605 3.423h-17.115l-1.212 6.846h-6.846l2.709-15.403 6.044-5.135H295l-1.212 6.846ZM207.7 103.861c-.035-.705-.268-1.206-.699-1.501a2.472 2.472 0 0 0-1.612-.438 2.273 2.273 0 0 1-.183.007 3.96 3.96 0 0 0-1.437.431c-.452.235-.778.5-.978.796a12.725 12.725 0 0 0-.523.94 6.923 6.923 0 0 0-.496 1.325c-.113.44-.17.851-.17 1.234 0 .696.192 1.284.575 1.763.383.478.97.726 1.762.744.792 0 1.521-.311 2.187-.934.666-.622 1.064-1.308 1.195-2.056a.403.403 0 0 0 .026-.144h-2.781l.183-.718h3.512l-.914 4.282h-.718l.274-1.24a3.32 3.32 0 0 1-1.149.992c-.461.244-.94.401-1.436.471a3.843 3.843 0 0 1-.614.051 3.243 3.243 0 0 1-2.069-.73c-.614-.488-.921-1.262-.921-2.325 0-.252.025-.528.072-.828.048-.301.116-.612.203-.934.304-1.123.785-1.989 1.443-2.598.656-.609 1.346-1.006 2.069-1.189.173-.043.346-.075.515-.097a3.92 3.92 0 0 1 .503-.033c.792 0 1.491.224 2.096.672.605.449.907 1.034.907 1.756v.301h-.822Zm17.599 5.731-.444-2.571h-3.604l-1.514 2.571h-.888l4.909-8.316h.914l1.514 8.316h-.887Zm-1.267-7.429-2.402 4.113h3.133l-.731-4.113Zm21.373 7.429h-.914l1.632-7.246-4.23 7.246h-.797l-1.071-7.246-1.54 7.246h-.888l1.789-8.225h1.266l1.058 7.168 4.23-7.168h1.24l-1.775 8.225Zm19.257-7.52h-4.557l-.652 2.873h4.23l-.183.718h-4.217l-.718 3.224h4.766l-.183.705h-5.562l1.776-8.225h5.483l-.183.705Zm16.947 1.606-.797-.013.001-.01a.2.2 0 0 1 .005-.042.244.244 0 0 0 .007-.065 1.185 1.185 0 0 0 .027-.249c0-.431-.168-.78-.503-1.048a1.84 1.84 0 0 0-1.182-.401 2.16 2.16 0 0 0-.372.033 2.584 2.584 0 0 0-.385.097 5.512 5.512 0 0 0-.235.084 1.99 1.99 0 0 0-.235.111 2.37 2.37 0 0 0-.62.518 1.673 1.673 0 0 0-.372.687.74.74 0 0 0-.04.162c-.008.057-.012.11-.012.162 0 .271.114.522.346.752.23.232.611.395 1.142.491 1.061.218 1.797.519 2.206.903.409.384.614.789.614 1.217 0 .105-.011.211-.033.32-.022.109-.05.216-.085.321a3.24 3.24 0 0 1-.268.562 4.558 4.558 0 0 1-.371.537c-.218.27-.551.497-.999.68a5.141 5.141 0 0 1-1.913.379c-.635 0-1.201-.158-1.697-.476-.496-.318-.744-.847-.744-1.586 0-.096.006-.205.019-.327l.025-.209.021-.156v-.013h.796v.209a.284.284 0 0 0-.013.084v.085c0 .575.168.98.503 1.215.335.234.703.374 1.103.417.044 0 .092.003.144.007.052.004.104.006.156.006h.148l.017-.001a.265.265 0 0 0 .042-.006.127.127 0 0 0 .028-.006 3.71 3.71 0 0 0 .745-.117c.383-.113.696-.295.94-.544a1.85 1.85 0 0 0 .483-.791.963.963 0 0 0 .052-.203c.008-.066.013-.133.013-.203 0-.227-.056-.439-.17-.635a.907.907 0 0 0-.522-.412l-.031-.011-.024-.009a.122.122 0 0 1-.017-.007l-.071-.026a9.804 9.804 0 0 0-.699-.229 20.877 20.877 0 0 1-.672-.202c-.575-.166-1.058-.363-1.449-.59-.392-.226-.588-.598-.588-1.113 0-.129.018-.285.052-.467a3.598 3.598 0 0 1 .196-.663c.174-.45.507-.825.999-1.124a4.088 4.088 0 0 1 1.573-.566c.087-.017.172-.028.255-.032a4.19 4.19 0 0 1 .254-.007c.592 0 1.112.162 1.56.487.449.324.673.841.673 1.55v.235c0 .079-.009.161-.026.248Z" clip-rule="evenodd"/></svg>