<svg xmlns="http://www.w3.org/2000/svg" width="300" height="281" fill="none" viewBox="0 0 300 281"><path fill="#fff" fill-rule="evenodd" d="M169.023 23h.248c6.45 0 11.679 5.228 11.679 11.678v212.417c0 6.45-5.229 11.678-11.679 11.678h-.248c-6.449 0-11.678-5.228-11.678-11.678V34.678c0-6.45 5.229-11.678 11.678-11.678Zm-57.18 64.83c-1.831 0-3.59.763-4.888 2.123-1.299 1.361-2.031 3.21-2.031 5.139v79.795h14.121V95.092c0-.955-.179-1.9-.528-2.783a7.302 7.302 0 0 0-1.502-2.356 6.903 6.903 0 0 0-2.245-1.571 6.637 6.637 0 0 0-2.644-.551h-.283ZM104.8 198.769a.121.121 0 0 0-.087.037.118.118 0 0 0-.018.021.13.13 0 0 0-.019.066c.02 9.412.022 18.83.005 28.254-.002.97.08 2.061.39 2.959 1.386 3.983 5.619 6.145 9.672 4.493 2.193-.894 3.638-2.573 4.334-5.036.144-.506.213-1.416.206-2.728a1982.268 1982.268 0 0 1 .007-15.194l.002-.007.003-.008a.097.097 0 0 1 .019-.029l.01-.009a.186.186 0 0 1 .019-.011.103.103 0 0 1 .035-.006h23.271a.2.2 0 0 1 .077.015l.019.009a.18.18 0 0 1 .046.035.15.15 0 0 1 .021.023.213.213 0 0 1 .038.119c0 8.937-.001 13.959-.002 15.065-.004 2.135-.083 3.783-.238 4.945-.362 2.685-.985 5.137-1.868 7.356-2.215 5.57-5.787 10.205-10.716 13.907-.82.617-2.308 1.459-4.464 2.527-4.728 2.348-9.618 3.418-14.671 3.209a30.909 30.909 0 0 1-11.177-2.579c-1.233-.537-2.345-1.158-3.695-1.912-.314-.175-.64-.358-.985-.548-1.178-.651-2.484-1.661-3.915-3.03-5.98-5.717-9.28-12.603-9.9-20.656-.072-.927-.107-2.579-.107-4.955.005-40.78.007-84.262.005-130.447 0-3.082.476-6.103 1.428-9.064C84.53 79.42 88.004 74.4 92.97 70.53c4.993-3.895 10.564-6.057 16.714-6.487 6.096-.427 11.716.761 16.862 3.563 5.158 2.808 9.188 6.69 12.089 11.649 2.503 4.279 3.894 8.874 4.172 13.786.031.564.047 2.217.049 4.96.003 29.886.003 63.437 0 100.651 0 .077-.038.116-.114.116H104.8ZM206.947 63.986h.287c6.428 0 11.639 5.21 11.639 11.638v171.508c0 6.428-5.211 11.639-11.639 11.639h-.287c-6.428 0-11.639-5.211-11.639-11.639V75.624c0-6.427 5.211-11.638 11.639-11.638ZM41.339 232.617a7.06 7.06 0 0 0 1.664-3.477c.072-.428.109-1.678.109-3.749-.004-48.877-.003-79.147.002-90.811.002-2.548.546-4.711 1.632-6.49 2.227-3.64 5.823-5.719 10.11-5.773 5.568-.07 10.51 3.958 11.58 9.364.173.873.26 2.522.26 4.948-.005 29.842-.007 59.683-.005 89.523 0 2.253-.055 3.905-.166 4.955-.9 8.586-5.362 16.335-12.226 21.598-.632.483-1.453 1.008-2.463 1.577-1.307.736-2.166 1.201-2.576 1.396-8.206 3.91-16.615 4.16-25.229.749-1.147-.453-2.83-1.337-5.047-2.651-1.559-.922-3.13-2.175-4.717-3.757-5.021-5.017-8.196-11.296-9.064-18.354-.137-1.109-.204-2.759-.2-4.95.013-7.769.012-20.894-.003-39.374-.002-2.854.692-5.239 2.08-7.155 1.692-2.336 3.844-3.87 6.456-4.603 6.515-1.827 13.337 2.215 14.738 8.804.185.877.278 2.522.278 4.938-.005 12.198-.006 24.396-.003 36.594.002 2.06.117 3.446.345 4.159 1.736 5.416 8.727 6.825 12.445 2.539Zm234.627-5.242a.25.25 0 0 1 .164-.248c6.266-2.708 11.131-6.962 14.597-12.76 2.159-3.61 3.516-7.559 4.072-11.844.14-1.071.207-2.721.201-4.95-.004-.856-.008-4.199-.013-10.029-.002-1.36-.063-2.36-.183-2.998a10.68 10.68 0 0 0-.99-2.872c-1.165-2.273-2.839-3.99-5.019-5.151a11.692 11.692 0 0 0-4.702-1.351c-2.667-.192-5.101.451-7.301 1.929-3.535 2.376-5.311 5.743-5.33 10.101-.021 5.165-.027 8.68-.017 10.545.008 1.238-.049 2.108-.171 2.611a6.952 6.952 0 0 1-1.131 2.411c-1.208 1.678-2.768 2.682-4.677 3.013-3.343.578-6.396-1.064-7.896-4.114-.445-.903-.667-2-.667-3.291-.004-21.708-.004-42.106 0-61.193 0-2.625-.052-4.276-.154-4.952-.43-2.806-1.782-5.19-4.055-7.153-2.005-1.727-4.379-2.646-7.122-2.757-4.124-.169-7.705 1.669-10.128 5.017-1.429 1.975-2.143 4.41-2.143 7.303.007 34.942.008 55.898.005 62.867-.002 2.109.079 3.771.241 4.984 1.47 11.053 8.412 20.152 18.589 24.589a.425.425 0 0 1 .256.389c.003 7.809.006 13.548.01 17.219.001 2.412.097 4.059.287 4.942.557 2.583 1.941 4.76 4.152 6.532 2.678 2.148 6.326 3.157 9.659 2.406 2.584-.584 4.764-1.862 6.54-3.834 1.008-1.119 1.747-2.342 2.217-3.668.469-1.328.705-2.772.707-4.332.003-10.758.004-17.212.002-19.361Z" clip-rule="evenodd"/></svg>