<svg xmlns="http://w3.org/2000/svg" width="17" height="16" fill="currentColor" viewBox="0 0 17 16">
                        <path fill-rule="evenodd" d="m13.562.058.218.027c.576.08 1.338.187 1.77.619.354.353.49.928.571 1.44l.048.33a9.996 9.996 0 0 1-.048 2.929c-.362 2.234-1.551 4.899-4.537 6.962-.016.16-.017.323-.014.485l.008.244c.014.373.028.746-.076 1.109-.163.565-.74.936-1.282 1.203l-.265.125-.342.15c-.64.272-1.503.55-2.044.01-.324-.325-.458-.8-.567-1.273l-.04-.177a6.455 6.455 0 0 0-.171-.662 9.95 9.95 0 0 0-.138-.38c-.054.067-.112.13-.174.193-.295.295-.735.5-1.098.645-.395.157-.843.294-1.257.406l-.213.056-.408.102-.369.085-.442.094-.276.054a.863.863 0 0 1-1.006-1.006l.073-.368.131-.597.106-.435.081-.308c.112-.414.25-.861.407-1.257.143-.363.35-.803.644-1.098l.07-.066-.056-.022a6.762 6.762 0 0 0-.444-.152l-.236-.072C1.593 9.273.958 9.08.564 8.685.086 8.208.247 7.48.478 6.875l.094-.234.151-.342.125-.265c.267-.54.639-1.119 1.203-1.281.3-.087.61-.091.924-.083l.187.007c.245.008.489.017.727-.006C5.953 1.685 8.618.496 10.851.133a10.087 10.087 0 0 1 2.711-.075ZM5.175 10.892a.856.856 0 0 0-.94-.052l-.094.064-.08.07-.107.136c-.222.32-.348.765-.447 1.18l-.092.4a9.26 9.26 0 0 1-.044.183l.164-.04.357-.081c.494-.116 1.041-.266 1.378-.57a.855.855 0 0 0 .076-1.122l-.07-.08-.02-.02-.081-.068Zm6.14-5.962a1.71 1.71 0 1 0-2.418 2.418 1.71 1.71 0 0 0 2.418-2.418Z" clip-rule="evenodd"></path>
                      </svg>